<?xml version="1.0" encoding="UTF-8"?>
<svg id="Layer_1" data-name="Layer 1" xmlns="http://www.w3.org/2000/svg" xmlns:xlink="http://www.w3.org/1999/xlink" viewBox="0 0 1127.14 799.97">
  <defs>
    <style>
      .cls-1 {
        stroke: #000;
        stroke-miterlimit: 10;
      }

      .cls-1, .cls-2 {
        fill: #686868;
      }

      .cls-3 {
        fill: none;
      }

      .cls-4 {
        clip-path: url(#clippath-1);
      }

      .cls-5 {
        clip-path: url(#clippath-3);
      }

      .cls-6 {
        clip-path: url(#clippath-2);
      }

      .cls-7 {
        fill: #58392f;
      }

      .cls-8 {
        clip-path: url(#clippath);
      }

      .cls-9 {
        fill: #725235;
      }
    </style>
    <clipPath id="clippath">
      <polygon class="cls-3" points="759.27 0 759.27 0 880.01 0 880.01 799.97 759.27 799.97 759.27 0"/>
    </clipPath>
    <clipPath id="clippath-1">
      <polygon class="cls-3" points="365.73 0 365.73 0 244.99 0 244.99 799.97 365.73 799.97 365.73 0"/>
    </clipPath>
    <clipPath id="clippath-2">
      <rect class="cls-3" width="563.57" height="303.86"/>
    </clipPath>
    <clipPath id="clippath-3">
      <rect class="cls-3" x="563.57" width="563.57" height="303.86"/>
    </clipPath>
  </defs>
  <g>
    <g id="_Mirror_Repeat_" data-name="&amp;lt;Mirror Repeat&amp;gt;">
      <g class="cls-8">
        <rect class="cls-9" x="759.27" width="120.74" height="799.97"/>
      </g>
    </g>
    <g id="_Mirror_Repeat_-2" data-name="&amp;lt;Mirror Repeat&amp;gt;">
      <g class="cls-4">
        <rect class="cls-9" x="244.99" width="120.74" height="799.97" transform="translate(610.73 799.97) rotate(180)"/>
      </g>
    </g>
  </g>
  <g>
    <g id="_Mirror_Repeat_-3" data-name="&amp;lt;Mirror Repeat&amp;gt;">
      <g class="cls-6">
        <polyline class="cls-7" points="0 0 169.29 303.86 597.86 303.86"/>
      </g>
    </g>
    <g id="_Mirror_Repeat_-4" data-name="&amp;lt;Mirror Repeat&amp;gt;">
      <g class="cls-5">
        <polyline class="cls-7" points="1127.14 0 957.86 303.86 529.29 303.86"/>
      </g>
    </g>
  </g>
  <rect class="cls-2" x="229.94" y="387.24" width="151.56" height="38.55" rx="6" ry="6"/>
  <circle cx="303.45" cy="452.91" r="13.16"/>
  <polygon class="cls-7" points="0 0 1125 0 545.16 304.36 0 0"/>
  <rect class="cls-1" x="276.99" y="416.24" width="52.93" height="20.41" transform="translate(-122.99 729.9) rotate(-90)"/>
  <rect class="cls-2" x="229.94" y="419.79" width="15.87" height="60.33"/>
  <rect class="cls-2" x="365.63" y="414.49" width="15.87" height="60.33"/>
  <rect class="cls-2" x="743.58" y="387.24" width="151.56" height="38.55" rx="6" ry="6"/>
  <rect class="cls-2" x="743.58" y="419.79" width="15.87" height="60.33"/>
  <rect class="cls-2" x="879.27" y="414.49" width="15.87" height="60.33"/>
  <circle cx="817.09" cy="452.91" r="13.16"/>
  <rect class="cls-1" x="792.1" y="414.77" width="49.97" height="20.41" transform="translate(392.12 1242.06) rotate(-90)"/>
  <circle cx="303.45" cy="522.33" r="13.16"/>
  <circle cx="817.09" cy="522.33" r="13.16"/>
</svg>